<svg version="1.0" xmlns="http://www.w3.org/2000/svg" width="465.333" height="465.333" viewBox="0 0 349 349"><path d="M89.5 20.6c-1.6.8-3.8 2.2-4.7 3.1-1.7 1.6-4.3 8.4-5.2 13.8-.3 1.6-3.3 15.5-6.6 30.9-3.3 15.3-6 29.2-6 31 .1 3.6 2.6 7 6 8.1 1.3.4 32 .8 68.2.7 60.4 0 65.8.2 65.4 1.7-.4 1.4-4 18-5.2 23.6-.2 1.1-.6 3.1-.9 4.5-.3 1.4-.7 3.6-1 5-3.7 19.5-16.3 75-18.1 79.8-5.7 15.3-15.1 22.3-30.1 22.3-12 .1-17.1-4-21.2-16.9-2.8-8.6-4.9-11.9-8.7-13.4-2.5-1-13.9-1.3-49.1-1.1-25.2 0-47 .2-48.5.2-3.2.1-8.6 4.4-10 8-1.7 4.4-1.8 24.2-.1 31.7 5.3 23.3 23 43.5 51.4 58.7 11.4 6.1 36.9 14.6 48.4 16.2 1.7.2 5.7.8 9 1.2 7.3 1 37.4 1 47 0 20.5-2.1 40.5-7.2 56.3-14.3 25.1-11.4 46.3-32.9 58.6-59.7 7.8-16.8 10.4-25.6 18.1-61.7 2.5-11.8 5-23.1 5.5-25 .5-1.9 1.1-4.9 1.4-6.5.2-1.7 2.3-11.6 4.6-22 2.3-10.5 4.4-19.9 4.6-21 .4-2 2-9.7 2.9-14.5 1.7-7.9 2.9-13.5 9.5-43.9 6.3-29.2 7-33.7 5.9-36.2-2.5-6.2 4.5-5.9-125.6-5.9-105.8 0-119.1.2-121.8 1.6z"/></svg>