<?xml version="1.0" standalone="no"?>
<!DOCTYPE svg PUBLIC "-//W3C//DTD SVG 20010904//EN"
 "http://www.w3.org/TR/2001/REC-SVG-20010904/DTD/svg10.dtd">
<svg version="1.0" xmlns="http://www.w3.org/2000/svg"
 width="349.000000pt" height="349.000000pt" viewBox="0 0 349.000000 349.000000"
 preserveAspectRatio="xMidYMid meet">
<metadata>
Created by potrace 1.14, written by Peter Selinger 2001-2017
</metadata>
<g transform="translate(0.000000,349.000000) scale(0.100000,-0.100000)"
fill="#000000" stroke="none">
<path d="M895 3284 c-16 -8 -38 -22 -47 -31 -17 -16 -43 -84 -52 -138 -3 -16
-33 -155 -66 -309 -33 -153 -60 -292 -60 -310 1 -36 26 -70 60 -81 13 -4 320
-8 682 -7 604 0 658 -2 654 -17 -4 -14 -40 -180 -52 -236 -2 -11 -6 -31 -9
-45 -3 -14 -7 -36 -10 -50 -37 -195 -163 -750 -181 -798 -57 -153 -151 -223
-301 -223 -120 -1 -171 40 -212 169 -28 86 -49 119 -87 134 -25 10 -139 13
-491 11 -252 0 -470 -2 -485 -2 -32 -1 -86 -44 -100 -80 -17 -44 -18 -242 -1
-317 53 -233 230 -435 514 -587 114 -61 369 -146 484 -162 17 -2 57 -8 90 -12
73 -10 374 -10 470 0 205 21 405 72 563 143 251 114 463 329 586 597 78 168
104 256 181 617 25 118 50 231 55 250 5 19 11 49 14 65 2 17 23 116 46 220 23
105 44 199 46 210 4 20 20 97 29 145 17 79 29 135 95 439 63 292 70 337 59
362 -25 62 45 59 -1256 59 -1058 0 -1191 -2 -1218 -16z"/>
</g>
</svg>
